<svg width="192" height="192" viewBox="0 0 192 192" fill="none" xmlns="http://www.w3.org/2000/svg">
<rect width="192" height="192" rx="15" fill="white"/>
<path d="M70 52.1857C70 50.9786 70.9786 50 72.1857 50H118.814C120.021 50 121 50.9786 121 52.1857V60.9286C121 62.9405 119.369 64.5714 117.357 64.5714H73.6429C71.631 64.5714 70 62.9405 70 60.9286V52.1857Z" fill="#EEEEEE"/>
<path d="M70 75.5C70 73.4881 71.631 71.8571 73.6429 71.8571H117.357C119.369 71.8571 121 73.4881 121 75.5V84.2429C121 85.45 120.021 86.4286 118.814 86.4286H72.1857C70.9786 86.4286 70 85.45 70 84.2429V75.5Z" fill="#EEEEEE"/>
<path d="M82.3857 90.0714L92.2549 94.6395C92.7555 94.8711 93.2903 95.0201 93.8385 95.0805L107.886 96.6286M82.3857 99.5429L94.4274 104.133L107.886 106.1M82.3857 109.014L94.4274 113.604L107.886 115.571M82.3857 118.486L94.4274 123.076L107.886 125.043M82.3857 127.957L94.4274 132.547L107.886 134.514M88.2143 138.157L94.94 142.529L102.786 139.25M85.3 68.2143H105.7M73.6429 64.5714H117.357C119.369 64.5714 121 62.9405 121 60.9286V52.1857C121 50.9786 120.021 50 118.814 50H72.1857C70.9786 50 70 50.9786 70 52.1857V60.9286C70 62.9405 71.631 64.5714 73.6429 64.5714ZM72.1857 86.4286H118.814C120.021 86.4286 121 85.45 121 84.2429V75.5C121 73.4881 119.369 71.8571 117.357 71.8571H73.6429C71.631 71.8571 70 73.4881 70 75.5V84.2429C70 85.45 70.9786 86.4286 72.1857 86.4286Z" stroke="black" stroke-width="2.18571"/>
</svg>
